# xmcd
#
# Track frame offsets:
#	150
#	20193
#	36728
#	51257
#	76616
#	100089
#	121331
#	148397
#	163469
#
# Disc length: 2547 seconds
# Revision: 0
# Processed by: cddbd v1.5.2PL0 Copyright (c) Steve Scherf et al.
# Submitted via: dBpowerAMP V12.0
#
DISCID=8309f109
DTITLE=Danny Bryant - Temperature Rising
DYEAR=2014
DGENRE=Blues
TTITLE0=Best of Me
TTITLE1=Take Me Higher
TTITLE2=Nothing At All
TTITLE3=Together Through Life
TTITLE4=Razor Sharp
TTITLE5=Temperature Rising
TTITLE6=Time
TTITLE7=Mystery
TTITLE8=Guntown
EXTD=
EXTT0=
EXTT1=
EXTT2=
EXTT3=
EXTT4=
EXTT5=
EXTT6=
EXTT7=
EXTT8=
PLAYORDER=
